# xmcd CD database file generated by OrangeCD 5.2
#
# Track frame offsets:
#	185
#	19360
#	36960
#	56312
#	74042
#	89227
#	104517
#	118922
#	135572
#	152562
#	168937
#
# Disc length: 2425 seconds
#
# Revision: 0
# Processed by: cddbd v1.5.1PL0 Copyright (c) Steve Scherf et al.
# Submitted via: OrangeCD 5.2
#
DISCID=9e09770b
DTITLE=Joe Carr and The Lone Star Band - Line Dance Party Texas Style
DYEAR=1993
DGENRE=Line Dance
TTITLE0=Ropesville
TTITLE1=The Pecos Push
TTITLE2=Boot Scoot Blues
TTITLE3=New Deal Shuffle
TTITLE4=Hot Footin'
TTITLE5=The Amarillo High Step
TTITLE6=The Panhandle Stomp
TTITLE7=Dancin' In Anson
TTITLE8=The Seminole Stroll
TTITLE9=The Squeeze
TTITLE10=West Of Eastwood
EXTD=
EXTT0=
EXTT1=
EXTT2=
EXTT3=
EXTT4=
EXTT5=
EXTT6=
EXTT7=
EXTT8=
EXTT9=
EXTT10=
PLAYORDER=
